<?xml version="1.0" encoding="utf-8"?>
<!-- Generator: Adobe Illustrator 16.2.0, SVG Export Plug-In . SVG Version: 6.00 Build 0)  -->
<!DOCTYPE svg PUBLIC "-//W3C//DTD SVG 1.1//EN" "http://www.w3.org/Graphics/SVG/1.1/DTD/svg11.dtd">
<svg version="1.1" id="Слой_1" xmlns="http://www.w3.org/2000/svg" xmlns:xlink="http://www.w3.org/1999/xlink" x="0px" y="0px"
	 width="100px" height="100px" viewBox="0 0 100 100" enable-background="new 0 0 100 100" xml:space="preserve">
<path display="none" fill="#898889" d="M92.7158203,10.0073242v72.6254883v2.8710938h-2.7958984h-1.3984375v11.1113281
	c0,1.8398438-1.4716797,3.3847656-3.2382813,3.3847656h-1.9873047c-1.5439453,0-2.7949219-1.3261719-2.7949219-3.0175781V85.5039063
	h-0.4414063h-1.1044922h-1.0292969h-1.1044922h-1.03125h-0.734375H20.3818359v11.1113281
	c0,1.8398438-1.4707031,3.3847656-3.2363281,3.3847656h-1.9882813c-1.5449219,0-2.7939453-1.3261719-2.7939453-3.0175781V85.5039063
	h-1.546875H8.09375v-2.8710938V10.0073242H3.4580078C1.5449219,10.0073242,0,8.3881836,0,6.3286133V4.7094727
	c0-2.0615234,1.5449219-3.7548828,3.4580078-3.7548828h93.0839844C98.4550781,0.9545898,100,2.6479492,100,4.7094727v1.6191406
	c0,2.0595703-1.5449219,3.6787109-3.4580078,3.6787109H92.7158203z M46.2109375,16.6274414h9.859375
	c1.3251953,0,2.4287109,1.1767578,2.4287109,2.5791016v2.9394531c0,1.4003906-1.1035156,2.5761719-2.4287109,2.5761719h-9.859375
	c-1.3242188,0-2.4296875-1.1757813-2.4296875-2.5761719V19.206543C43.78125,17.8041992,44.8867188,16.6274414,46.2109375,16.6274414
	L46.2109375,16.6274414z M45.4736328,52.0253906h9.8623047c1.3232422,0,2.4277344,1.1757813,2.4277344,2.6445313v2.8710938
	c0,1.4707031-1.1044922,2.6503906-2.4277344,2.6503906h-9.8623047c-1.3242188,0-2.4257813-1.1796875-2.4257813-2.6503906v-2.8710938
	C43.0478516,53.2011719,44.1494141,52.0253906,45.4736328,52.0253906L45.4736328,52.0253906z M77.0410156,14.347168H23.7685547
	v25.1665039h53.2724609V14.347168z M77.0410156,49.7421875H23.7685547v25.1660156h53.2724609V49.7421875z"/>
<path display="none" fill="#898889" d="M17.0683594,0h65.7880859h2.9384766v3.0883789v88.925293v3.0878906h-2.9384766H17.0683594
	h-2.8632813v-3.0878906V3.0883789V0H17.0683594z M44.2734375,42.2763672L44.2734375,42.2763672
	c0.6777344,0,1.28125,0.6020508,1.28125,1.355957V51.46875c0,0.6777344-0.6035156,1.2832031-1.28125,1.2832031l0,0
	c-0.6796875,0-1.2060547-0.6054688-1.2060547-1.2832031v-7.8364258C43.0673828,42.878418,43.59375,42.2763672,44.2734375,42.2763672
	L44.2734375,42.2763672z M55.6523438,42.2763672L55.6523438,42.2763672c0.6777344,0,1.2060547,0.6020508,1.2060547,1.355957
	V51.46875c0,0.6777344-0.5283203,1.2832031-1.2060547,1.2832031l0,0c-0.6787109,0-1.2060547-0.6054688-1.2060547-1.2832031
	v-7.8364258C54.4462891,42.878418,54.9736328,42.2763672,55.6523438,42.2763672L55.6523438,42.2763672z M71.2509766,96.0820313
	h7.1591797V100h-7.1591797V96.0820313z M21.8916016,96.0820313h7.1591797V100h-7.1591797V96.0820313z M52.8642578,6.1801758
	v82.6655273h27.0537109V6.1801758H52.8642578z M47.0615234,88.8457031V6.1801758H20.0068359v82.6655273H47.0615234z"/>
<path fill-rule="evenodd" clip-rule="evenodd" fill="#898889" d="M8.7216797,0h82.6191406v23.8676758H8.7216797V0z
	 M53.5791016,34.5776367h24.4804688v8.7514648H53.5791016V34.5776367z M21.5722656,34.5776367h24.4199219v8.7514648H21.5722656
	V34.5776367z M0.7646484,85.0058594l98.2246094,1.0400391L98.8671875,100L0.6425781,99.0205078L0.7646484,85.0058594z
	 M7.8632813,29.8037109h83.9033203l7.5908203,51.1015625c-29.2539063,0-68.7275391-0.796875-97.9785156-0.796875
	C3.5175781,63.3408203,5.6601563,46.5727539,7.8632813,29.8037109L7.8632813,29.8037109z"/>
<path display="none" fill-rule="evenodd" clip-rule="evenodd" fill="#898889" d="M42.8823242,0h13.9360352
	c6.9960938,0,12.6640625,6.0922852,12.6640625,13.4501953v25.0297852c0,7.3588867-5.6679688,13.3901367-12.6640625,13.3901367
	h-3.4394531v4.5224609H67.734375c0.6621094,0,1.3261719,0.6650391,1.7480469,1.75l0,0
	c0.2402344,0.6035156,0.421875,1.2666016,0.5429688,2.0517578c9.7714844-0.1826172,7.6015625-10.0131836,7.359375-19.0610352
	h-0.3613281c-0.7265625,0-1.328125-0.6625977-1.328125-1.387207v-1.6879883c0-0.7836914,0.6015625-1.3862305,1.328125-1.3862305
	h5.4257813c0.7246094,0,1.3261719,0.6025391,1.3261719,1.3862305v1.6879883c0,0.7246094-0.6015625,1.387207-1.3261719,1.387207
	H81.96875c0.1210938,11.8823242,2.8339844,24.4887695-12.0039063,24.0053711
	c-0.1210938,0.6035156-0.2421875,1.1464844-0.4824219,1.6289063c-0.421875,1.0849609-1.0859375,1.8095703-1.7480469,1.8095703
	H51.8105469v19.5410156c0,0.1210938,0,0.2412109,0,0.3623047c4.1621094,0.3623047,8.1425781,1.5693359,12.1230469,4.2216797
	c0.1816406,0.84375-0.0585938,1.3876953-0.9042969,1.5683594c-4.0429688-2.7138672-8.0800781-3.8007813-12.3032227-4.0410156
	v5.3671875l-0.0605469,0.3623047l0,0l-0.421875,0.4833984l0,0l-0.3632813,0.0605469l0,0l-0.3623047-0.0605469l0,0
	l-0.4814453-0.4833984l0,0l-0.0605469-0.3623047v-5.3671875c-4.0410156,0.1806641-7.3574219,0.9052734-11.640625,3.6191406
	c-0.84375-0.1816406-1.0859375-0.7246094-0.84375-1.5683594c4.1601563-2.6533203,7.4179688-3.4980469,11.3994141-3.8613281
	c0-0.0595703,0-0.1796875,0-0.3007813V68.5771484H31.9682617c-0.6640625,0-1.3271484-0.7246094-1.7490234-1.8095703l0,0
	c-0.1816406-0.4824219-0.3613281-1.0253906-0.4853516-1.6289063c-14.59375,0.3017578-11.8798828-12.1826172-11.7578125-24.0053711
	h-0.4833984c-0.6640625,0-1.2675781-0.6625977-1.2675781-1.387207v-1.6879883c0-0.7836914,0.6035156-1.3862305,1.2675781-1.3862305
	h5.4892578c0.7226563,0,1.3242188,0.6025391,1.3242188,1.3862305v1.6879883c0,0.7246094-0.6015625,1.387207-1.3242188,1.387207
	h-0.4248047c0,0.7246094-0.0595703,1.4482422-0.0595703,2.293457c-0.421875,8.6835938-1.4453125,15.1376953,5.9726563,16.5849609
	c0.3613281,0.0605469,0.7832031,0.1220703,1.2050781,0.1220703c0.1240234-0.7246094,0.3017578-1.3876953,0.5439453-1.9912109l0,0
	c0.0595703-0.0595703,0.0595703-0.1806641,0.1201172-0.3017578c0.421875-0.9042969,1.0234375-1.4482422,1.6289063-1.4482422
	h14.4140625v-4.5224609h-3.5c-6.9345703,0-12.6630859-6.03125-12.6630859-13.3901367V13.4501953
	C30.2192383,6.0922852,35.9477539,0,42.8823242,0L42.8823242,0z M61.5820313,94.5732422L61.5820313,94.5732422
	c0.7832031,0,1.3867188,0.1796875,1.3867188,0.3603516V97.40625c0,0.2431641-0.6035156,0.4228516-1.3867188,0.4228516l0,0
	c-0.7851563,0-1.3886719-0.1796875-1.3886719-0.4228516v-2.4726563
	C60.1933594,94.7529297,60.796875,94.5732422,61.5820313,94.5732422L61.5820313,94.5732422z M64.9589844,94.5732422
	L64.9589844,94.5732422c0.7871094,0,1.3886719,0.1796875,1.3886719,0.3603516V97.40625
	c0,0.2431641-0.6015625,0.4228516-1.3886719,0.4228516l0,0c-0.7832031,0-1.3867188-0.1796875-1.3867188-0.4228516v-2.4726563
	C63.5722656,94.7529297,64.1757813,94.5732422,64.9589844,94.5732422L64.9589844,94.5732422z M34.862793,94.3310547
	L34.862793,94.3310547c0.7832031,0,1.3867188,0.1806641,1.3867188,0.421875v2.4121094
	c0,0.2412109-0.6035156,0.4238281-1.3867188,0.4238281l0,0c-0.7841797,0-1.3876953-0.1826172-1.3876953-0.4238281v-2.4121094
	C33.4750977,94.5117188,34.0786133,94.3310547,34.862793,94.3310547L34.862793,94.3310547z M38.2387695,94.3310547
	L38.2387695,94.3310547c0.7871094,0,1.3876953,0.1806641,1.3876953,0.421875v2.4121094
	c0,0.2412109-0.6005859,0.4238281-1.3876953,0.4238281l0,0c-0.7832031,0-1.3857422-0.1826172-1.3857422-0.4238281v-2.4121094
	C36.8530273,94.5117188,37.4555664,94.3310547,38.2387695,94.3310547L38.2387695,94.3310547z M48.1928711,96.7431641
	L48.1928711,96.7431641c0.7236328,0,1.3857422,0.1816406,1.3857422,0.421875v2.4121094
	c0,0.2421875-0.6621094,0.4228516-1.3857422,0.4228516l0,0c-0.7851563,0-1.3886719-0.1806641-1.3886719-0.4228516v-2.4121094
	C46.8041992,96.9248047,47.4077148,96.7431641,48.1928711,96.7431641L48.1928711,96.7431641z M51.5683594,96.7431641
	L51.5683594,96.7431641c0.7246094,0,1.3886719,0.1816406,1.3886719,0.421875v2.4121094
	c0,0.2421875-0.6640625,0.4228516-1.3886719,0.4228516l0,0c-0.7827148,0-1.3842773-0.1806641-1.3842773-0.4228516v-2.4121094
	C50.184082,96.9248047,50.7856445,96.7431641,51.5683594,96.7431641L51.5683594,96.7431641z"/>
<g display="none">
	<path display="inline" fill-rule="evenodd" clip-rule="evenodd" fill="#898889" d="M89.3398438,42.3535156H70.8261719
		l12.9042969,54.7021484C84.1503906,98.8759766,85.6953125,100,87.375,100c0.140625,0,0.2792969,0,0.4199219,0
		c1.8242188-0.2851563,3.2285156-1.9628906,3.2285156-3.9296875V42.2119141
		C90.4609375,42.2119141,89.9003906,42.3535156,89.3398438,42.3535156L89.3398438,42.3535156z M12.4819336,0H87.515625
		c4.4882813,0,8.1347656,3.7871094,8.1347656,8.5556641v18.6572266c0,4.7636719-3.6464844,8.6894531-8.1347656,8.6894531H12.4819336
		c-4.4887695,0-8.1318359-3.9257813-8.1318359-8.6894531V8.5556641C4.3500977,3.7871094,7.9931641,0,12.4819336,0L12.4819336,0z
		 M10.5195313,42.3535156c-0.5615234,0-1.1210938-0.1416016-1.6850586-0.1416016v53.8583984
		c0,1.9667969,1.4033203,3.6445313,3.3676758,3.9296875c0.1420898,0,0.2797852,0,0.421875,0
		c1.6806641,0,3.2255859-1.1240234,3.6455078-2.9443359l12.902832-54.7021484H10.5195313z"/>
	<path display="inline" fill-rule="evenodd" clip-rule="evenodd" fill="#898889" d="M35.3310547,26.7011719h29.1962891
		c14.53125,0,26.4960938,7.6689453,26.4960938,16.9697266v31.7060547c0,9.390625-11.9648438,17.0605469-26.4960938,17.0605469
		H57.265625H42.5893555h-7.2583008c-14.6738281,0-26.496582-7.6699219-26.496582-17.0605469V43.6708984
		C8.8344727,34.3701172,20.6572266,26.7011719,35.3310547,26.7011719L35.3310547,26.7011719z"/>
</g>
<path display="none" fill-rule="evenodd" clip-rule="evenodd" fill="#898889" d="M57.0927734,54.7460938h13.5800781
	c3.546875,0,6.4902344,3.1240234,6.4902344,6.9101563v13.4013672c0,5.8291016-3.5449219,6.2519531-7.4511719,6.2519531H57.9921875
	c-3.9052734,0-7.3911133-0.4228516-7.3911133-6.2519531V61.65625
	C50.6010742,57.8701172,53.4853516,54.7460938,57.0927734,54.7460938L57.0927734,54.7460938z M28.9672852,54.4453125h13.5810547
	c3.6054688,0,6.4897461,3.0654297,6.4897461,6.8515625v13.4619141c0,3.7841797-2.8842773,6.8496094-6.4897461,6.8496094H28.9672852
	c-3.5473633,0-6.4907227-3.0654297-6.4907227-6.8496094V61.296875
	C22.4765625,57.5107422,25.4199219,54.4453125,28.9672852,54.4453125L28.9672852,54.4453125z M99.8193359,96.390625
	C99.9394531,96.6914063,100,97.0546875,100,97.4140625l0,0C100,98.8544922,98.9189453,100,97.5966797,100h-6.4902344
	c-1.3222656,0-2.4042969-1.1455078-2.4042969-2.5859375l0,0c0-0.359375,0.0605469-0.7226563,0.1796875-1.0234375h-8.5332031l0,0
	c-0.3007813,0-0.6601563,0-0.9628906,0H19.7714844h-2.1035156h-6.5493164
	c0.1796875,0.3007813,0.2397461,0.6640625,0.2397461,1.0234375l0,0c0,1.4404297-1.081543,2.5859375-2.402832,2.5859375H2.4042969
	C1.0820313,100,0,98.8544922,0,97.4140625l0,0c0-0.359375,0.1210938-0.7226563,0.2407227-1.0234375V60.7548828
	c0-3.125,4.387207-5.6494141,9.7963867-5.6494141h9.734375v24.2197266h3.0048828
	c0.3603516,1.1416016,1.3222656,1.984375,2.4038086,2.5830078c1.4423828,0.7216797,3.125,1.0224609,4.6879883,1.0224609h11.7783203
	c1.5625,0,3.3056641-0.3007813,4.7480469-1.0224609c1.0214844-0.5986328,1.9833984-1.4414063,2.402832-2.5830078h2.0444336
	c0.4189453,1.1416016,1.3808594,1.984375,2.4033203,2.5830078c1.4414063,0.7216797,3.1855469,1.0224609,4.7470703,1.0224609
	h11.7197266c1.6220703,0,3.3046875-0.3007813,4.7470703-1.0224609c1.0214844-0.5986328,1.9833984-1.4414063,2.4042969-2.5830078
	h3.4853516V55.1054688h9.7949219c5.3496094,0,9.7363281,2.5244141,9.7363281,5.6494141V96.390625H99.8193359z"/>
<path display="none" fill-rule="evenodd" clip-rule="evenodd" fill="#898889" d="M4.9160156,75.8154297h14.6865234h4.9160156
	h0.7978516c0.6660156,0,1.2617188,0.5976563,1.2617188,1.3300781v2.5234375c0,0.7324219-0.5957031,1.3300781-1.2617188,1.3300781
	h-0.7978516V100h-4.9160156v-6.7099609H4.9160156V100H0V61.3310547c0-1.3300781,1.0644531-2.3925781,2.2587891-2.3925781h0.4648438
	c1.1972656,0,2.1923828,1.0625,2.1923828,2.3251953V75.8154297z M17.3417969,61.5283203h13.9541016V98.140625h4.453125
	l0.265625-30.9619141h28.5029297l0.4648438,30.9619141h4.1210938V61.5283203h15.6142578
	c1.9941406,0.3320313,1.5273438-2.3916016,1.5273438-3.2539063v-0.4648438c0-0.8652344-0.6630859-1.5947266-1.5273438-1.5947266
	H17.3417969c-0.7958984,0-1.4599609,0.7294922-1.4599609,1.5947266v0.4648438
	C15.8818359,59.1367188,15.4150391,61.6630859,17.3417969,61.5283203L17.3417969,61.5283203z M64.0546875,59.8710938v3.6513672
	L36.546875,63.8544922l-0.0673828-3.9833984H64.0546875z M95.0839844,75.8154297H80.3994141h-4.9160156h-0.7998047
	c-0.6621094,0-1.2597656,0.5976563-1.2597656,1.3300781v2.5234375c0,0.7324219,0.5976563,1.3300781,1.2597656,1.3300781h0.7998047
	V100h4.9160156v-6.7099609h14.6845703V100H100V61.3310547c0-1.3300781-1.0644531-2.3925781-2.3261719-2.3925781h-0.3974609
	c-1.2626953,0-2.1923828,1.0625-2.1923828,2.3251953V75.8154297z M80.3994141,90.6328125v-9.6337891h14.6845703v9.6337891
	H80.3994141z M19.6025391,90.6328125v-9.6337891H4.9160156v9.6337891H19.6025391z"/>
<path display="none" fill-rule="evenodd" clip-rule="evenodd" fill="#898889" d="M88.8505859,47.8320313l3.4648438-3.3486328
	H7.6845703l3.4648438,3.3486328H88.8505859z M55.8056641,37.3183594c-0.5761719-0.5195313-0.7519531-1.3847656-0.8095703-1.6738281
	h-9.9931641c-0.0566406,0.2890625-0.2304688,1.0976563-0.8652344,1.5566406l-0.1171875,0.1171875H40.84375
	c-1.15625,0-2.1376953,1.0400391-2.1376953,2.2548828c0,4.1572266,22.5869141,4.1572266,22.5869141,0
	c0-1.2148438-0.9804688-2.2548828-2.1367188-2.2548828H55.8056641z M54.9404297,33.9677734l-0.1171875-2.5996094h16.0615234
	c1.0390625,0,2.0214844-0.3447266,2.0214844-1.4423828V1.9638672C72.90625,0.8662109,71.9238281,0,70.8847656,0H29.0595703
	c-0.9833984,0-1.9638672,0.8662109-1.9638672,1.9638672v27.9619141c0,1.0976563,0.9804688,1.4423828,1.9638672,1.4423828h16.1171875
	l-0.1171875,2.5996094H54.9404297z M69.9013672,26.2275391L69.9013672,26.2275391H30.0986328V3.1777344h39.8027344V26.2275391z
	 M88.8505859,100v-3.5820313v-3.640625V49.5683594H11.1494141v43.2089844v3.640625V100h5.1435547v-3.5820313
	c22.6435547,0,44.7119141,0,67.3574219,0V100H88.8505859z M20.8554688,56.0371094h58.2910156
	c0.9794922,0,1.8486328,0.4033203,2.4833984,1.0966797s1.0390625,1.6171875,1.0390625,2.6572266v7.5664063
	c0,1.0429688-0.4042969,1.9658203-1.0390625,2.6591797l0,0l0,0c-0.6347656,0.6933594-1.5039063,1.0976563-2.4833984,1.0976563
	H20.8554688c-0.9814453,0-1.8486328-0.4042969-2.4833984-1.0976563c-0.6367188-0.6933594-1.0410156-1.6162109-1.0410156-2.6591797
	v-7.5664063c0-1.0400391,0.4042969-1.9638672,1.0410156-2.6572266l0,0
	C19.0068359,56.4404297,19.8740234,56.0371094,20.8554688,56.0371094L20.8554688,56.0371094z M54.9960938,63.5478516
	c0,0.6347656-0.1728516,1.2109375-0.4609375,1.6152344c-0.3476563,0.4638672-0.8066406,0.8095703-1.3867188,0.8095703l0,0h-6.296875
	l0,0c-0.5761719,0-1.0410156-0.3457031-1.3867188-0.8095703c-0.2880859-0.4042969-0.4619141-0.9804688-0.4619141-1.6152344
	c0-0.5810547,0.1738281-1.1572266,0.4619141-1.5595703c0.3457031-0.4628906,0.8105469-0.8085938,1.3867188-0.8085938l0,0h6.296875
	l0,0c0.5800781,0,1.0390625,0.3457031,1.3867188,0.8085938C54.8232422,62.390625,54.9960938,62.9667969,54.9960938,63.5478516
	L54.9960938,63.5478516z M46.9101563,79.3183594H19.7001953v12.015625h27.2099609V79.3183594z M35.0078125,85.3242188
	c0,0.2324219-0.0566406,0.40625-0.1132813,0.5214844c-0.1171875,0.171875-0.2890625,0.2890625-0.4628906,0.2890625l0,0h-2.1943359
	l0,0c-0.1738281,0-0.3476563-0.1171875-0.4628906-0.2890625c-0.1132813-0.1152344-0.1738281-0.2890625-0.1738281-0.5214844
	c0-0.2285156,0.0605469-0.4023438,0.1738281-0.5195313c0.1152344-0.1738281,0.2890625-0.2890625,0.4628906-0.2890625l0,0h2.1943359
	l0,0c0.1738281,0,0.3457031,0.1152344,0.4628906,0.2890625C34.9511719,84.921875,35.0078125,85.0957031,35.0078125,85.3242188
	L35.0078125,85.3242188z M81.2255859,79.3183594H53.9570313v12.015625h27.2685547V79.3183594z M69.3232422,85.3242188
	c0,0.2324219-0.1152344,0.40625-0.171875,0.5214844c-0.1152344,0.171875-0.2890625,0.2890625-0.4628906,0.2890625l0,0h-2.1943359
	l0,0c-0.1738281,0-0.3457031-0.1171875-0.4628906-0.2890625c-0.1132813-0.1152344-0.171875-0.2890625-0.171875-0.5214844
	c0-0.2285156,0.0585938-0.4023438,0.171875-0.5195313c0.1171875-0.1738281,0.2890625-0.2890625,0.4628906-0.2890625l0,0h2.1943359
	l0,0c0.1738281,0,0.3476563,0.1152344,0.4628906,0.2890625C69.2080078,84.921875,69.3232422,85.0957031,69.3232422,85.3242188
	L69.3232422,85.3242188z"/>
<path display="none" fill-rule="evenodd" clip-rule="evenodd" fill="#898889" d="M50.1650391,0L50.1650391,0
	c-1.7197266,0-3.1074219,1.5214844-3.1074219,3.3037109v40.0546875c-1.6523438,1.1240234-2.7744141,3.0380859-2.7744141,5.2880859
	V61.203125c0,0.3974609,0,0.7255859,0.0654297,1.0566406C33.2460938,64.96875,24.8496094,75.4794922,24.6523438,88.1025391
	c0,0.1992188,0,0.3955078,0,0.5292969l50.6953125-0.3300781c-0.0693359-12.5566406-8.2626953-23.1318359-19.3671875-25.9775391
	c0.0644531-0.328125,0.0644531-0.7236328,0.0644531-1.1210938V48.6464844c0-2.25-1.1220703-4.1640625-2.7744141-5.2880859V3.3037109
	C53.2705078,1.5214844,51.8828125,0,50.1650391,0L50.1650391,0z M50.03125,100
	c-6.4755859,0-12.1611328-3.5693359-15.3974609-8.9892578h30.7304688C62.1279297,96.4306641,56.4423828,100,50.03125,100
	L50.03125,100z"/>
<path display="none" fill="#898889" d="M17.1137695,0h65.7729492h2.8984375v3.1152344v7.0361328v4.1328125v77.7382813v3.0439453
	h-2.8984375H17.1137695h-2.8994141v-3.0439453V3.1152344V0H17.1137695z M75.4160156,41.7666016h0.5078125
	c0.5800781,0,1.0175781,0.5097656,1.0175781,1.0898438V52.28125c0,0.6513672-0.4375,1.0898438-1.0175781,1.0898438h-0.5078125
	c-0.5078125,0-0.9414063-0.4384766-0.9414063-1.0898438v-9.4248047
	C74.4746094,42.2763672,74.9082031,41.7666016,75.4160156,41.7666016L75.4160156,41.7666016z M20.0151367,70.7021484h27.0488281
	V53.3710938H20.0151367V70.7021484z M47.0639648,72.2978516H20.0151367v16.6044922h27.0488281V72.2978516z M20.0151367,51.7763672
	h27.0488281v-16.171875H20.0151367V51.7763672z M20.0151367,34.0068359h27.0488281V14.2841797H20.0151367V34.0068359z
	 M20.0151367,10.1513672h27.0488281V6.1640625H20.0151367V10.1513672z M52.9355469,10.1513672H79.984375V6.1640625H52.9355469
	V10.1513672z M79.984375,14.2841797H52.9355469v74.6181641H79.984375V14.2841797z M54.4589844,43.5800781
	C54.4589844,39.0830078,54.4589844,67.7285156,54.4589844,43.5800781L54.4589844,43.5800781z M71.2832031,96.0810547h7.1054688V100
	h-7.1054688V96.0810547z M21.8999023,96.0810547h7.1054688V100h-7.1054688V96.0810547z"/>
<g display="none">
	<g display="inline">
		<path fill="#898889" d="M3.5195313,21.2128906h92.9775391v-8.7265625H3.5195313V21.2128906z M96.4970703,24.8535156H3.5195313
			v21.6357422h92.9775391V24.8535156z M99.3984375,100H0h13.4804688H1.8027344H0.0161133v-1.78125V10.6318359V8.7783203h1.7866211
			h96.4804688H100v1.8535156V98.21875V100h-1.7167969H85.9179688H99.3984375z M96.4970703,72.1787109v-22.046875H3.5195313
			v22.046875v3.6455078v20.5371094h92.9775391V75.8242188V72.1787109z M83.5986328,29.8681641
			c2.9550781,0,5.2890625,2.5400391,5.2890625,5.6328125c0,3.1582031-2.3339844,5.6298828-5.2890625,5.6298828
			c-2.953125,0-5.3574219-2.4716797-5.3574219-5.6298828C78.2412109,32.4082031,80.6455078,29.8681641,83.5986328,29.8681641
			L83.5986328,29.8681641z M17.1738281,29.8681641c2.8847656,0,5.2900391,2.5400391,5.2900391,5.6328125
			c0,3.1582031-2.4052734,5.6298828-5.2900391,5.6298828c-2.9545898,0-5.3583984-2.4716797-5.3583984-5.6298828
			C11.8154297,32.4082031,14.2192383,29.8681641,17.1738281,29.8681641L17.1738281,29.8681641z"/>
		<path fill="#898889" d="M62.0234375,29.8681641c-2.953125,0-5.3564453,2.5400391-5.3564453,5.6328125
			c0,3.1582031,2.4033203,5.6298828,5.3564453,5.6298828c2.9560547,0,5.2910156-2.4716797,5.2910156-5.6298828
			C67.3144531,32.4082031,64.9794922,29.8681641,62.0234375,29.8681641z"/>
		<path fill="#898889" d="M38.5952148,29.8681641c-2.953125,0-5.3574219,2.5400391-5.3574219,5.6328125
			c0,3.1582031,2.4042969,5.6298828,5.3574219,5.6298828c2.9555664,0,5.2900391-2.4716797,5.2900391-5.6298828
			C43.8852539,32.4082031,41.5507813,29.8681641,38.5952148,29.8681641z"/>
	</g>
	<path display="inline" fill="#898889" d="M85,90H16V57h69V90z M18,88h64V60H18V88z"/>
</g>
</svg>
